<svg xmlns="http://www.w3.org/2000/svg" width="200" height="150" viewBox="0 0 200 150"><defs><linearGradient id="a" x2="1" y2="1"><stop stop-color="#faf8ff"/><stop offset="1" stop-color="#eee8ff"/></linearGradient></defs><ellipse cx="100" cy="131" rx="70" ry="9" fill="#ebe5fa"/><rect x="43" y="27" width="115" height="96" rx="15" fill="url(#a)" stroke="#d8ccef"/><rect x="57" y="43" width="26" height="26" rx="8" fill="#c3b0f5"/><path d="m65 55 5-5 5 5v7h-10Z" fill="white"/><rect x="94" y="47" width="49" height="5" rx="2.5" fill="#cdbde9"/><rect x="94" y="58" width="32" height="4" rx="2" fill="#dfd3f1"/><rect x="57" y="84" width="84" height="4" rx="2" fill="#dfd3f1"/><rect x="57" y="96" width="58" height="4" rx="2" fill="#dfd3f1"/><circle cx="158" cy="102" r="20" fill="#8364dd"/><path d="M150 102h16m-8-8v16" stroke="white" stroke-width="3" stroke-linecap="round"/><path d="m32 39 2-6 2 6 6 2-6 2-2 6-2-6-6-2Z" fill="#ad91ec"/><circle cx="164" cy="23" r="4" fill="#d9c9f5"/></svg>
